PathFileType	4	(X/Y/Z)	D:\Long Term Storage\D'Arcy Smith\Coord18.trc
DataRate	CameraRate	NumFrames	NumMarkers	Units	OrigDataRate	OrigDataStartFrame	OrigNumFrames
120.00	120.00	      51	4	mm	120.00	599	      4787
Frame#	Time	M1			M2			M3			M4			
		X1	Y1	Z1	X2	Y2	Z2	X3	Y3	Z3	X4	Y4	Z4	

599	4.983	599.22760	303.99359	408.49084	981.26300	286.45477	348.75909							
600	4.992	601.97339	311.35938	424.95016	982.18726	290.37405	365.89542							
601	5.000	603.67438	318.97470	440.19736	983.07880	294.69394	382.26389							
602	5.008	605.16229	327.38861	456.64359	983.66327	299.84076	397.44409							
603	5.017	606.56250	336.94659	471.46329	984.48486	305.82574	413.20810							
604	5.025	607.27814	345.80173	484.10666	985.15851	312.30795	427.39127							
605	5.033	608.08344	355.05756	495.97311	985.08026	319.55875	441.19348							
606	5.042	608.78363	364.27487	506.80658	985.84528	327.11221	453.95145							
607	5.050	609.37592	373.92361	516.77594	986.67450	334.58881	465.88019							
608	5.058	609.48816	382.42889	525.12122	987.20435	342.08130	477.18588							
609	5.067	609.51178	390.07358	531.91565	987.90790	350.09219	487.18140							
610	5.075	609.14948	397.12762	537.74567	988.46362	357.97711	496.97900							
611	5.083	608.61987	402.86890	542.22260	988.82330	365.57361	505.59375							
612	5.092	608.08917	407.25659	545.53088	989.22699	373.16690	513.33502							
613	5.100	607.19275	410.30777	547.43817	989.77325	380.10446	520.18781							
614	5.108	606.21521	412.01297	548.53290	990.09064	386.60049	526.67731							
615	5.117	605.10883	412.45074	548.17163	990.12592	392.63989	532.49585							
616	5.125	603.63837	411.56863	546.79059	990.47101	398.03534	537.09875							
617	5.133	602.29651	409.58124	544.39355	990.54547	402.64798	541.31256							
618	5.142	600.58087	406.70279	540.96924	990.59827	406.42557	544.53186							
619	5.150	598.89178	402.90201	536.52155	990.56274	409.75726	547.35699							
620	5.158	596.90582	398.49164	531.28217	990.41534	412.60995	549.65070							
621	5.167	594.56317	393.15784	525.26154	990.00073	414.47366	551.14948							
622	5.175	592.51593	387.80588	518.34241	989.59589	415.59909	552.37793							
623	5.183	590.45868	382.03430	510.40973	989.10400	416.09006	553.10101							
624	5.192	587.60559	375.48163	501.38791	988.63403	415.71924	553.29285							
625	5.200	585.57977	369.46225	491.64517	988.14056	414.80310	552.63019							
626	5.208	583.15570	363.90735	481.75229	987.52490	413.00464	551.41425							
627	5.217	580.95911	356.66632	469.69562	987.00098	410.85184	549.63147							
628	5.225	578.16962	350.08502	455.37747	986.09912	408.11703	547.06934							
629	5.233	576.06488	344.10187	442.71503	985.60760	404.96964	544.40234							
630	5.242	574.16254	338.41809	429.22672	984.70398	401.57129	540.72522							
631	5.250	572.23352	332.95145	415.10422	984.02399	397.39328	537.07745							
632	5.258	570.09802	327.76520	400.23322	983.27838	393.05154	532.58978							
633	5.267	567.97736	323.53903	385.69989	982.41693	388.44659	527.59088							
634	5.275	566.59949	317.73209	367.07608	981.77728	383.57874	522.31531							
635	5.283	564.45587	314.84659	351.87396	981.03210	378.72269	516.02606							
636	5.292	562.69360	311.73114	334.63034	980.47247	373.73685	510.02405							
637	5.300	561.07495	309.50302	316.88391	980.15674	368.70001	503.17331							
638	5.308	559.76721	308.10089	299.00711	979.72406	363.60953	496.36853							
639	5.317	558.73260	308.83041	281.57608	979.65961	358.64008	489.07321							
640	5.325	557.79730	309.06772	263.36966	979.50360	353.75137	482.05927							
641	5.333	555.02069	310.48169	244.35577	979.66583	349.57663	474.00464							
642	5.342	554.95203	312.16269	225.58012	979.82294	345.22864	466.26276							
643	5.350	553.62134	314.17020	207.43405	980.12073	341.11911	458.19485							
644	5.358	553.17206	318.18179	189.41229	980.44708	337.23480	450.38199							
645	5.367	552.89642	322.39969	172.74358	980.90210	333.64447	442.26462							
646	5.375	551.37250	327.03052	153.71504	981.16107	330.29257	434.61426							
647	5.383	551.01215	331.63632	135.67798	981.95703	327.06253	426.81448							
648	5.392	550.58813	337.99213	120.76483	982.50464	324.17245	419.48776							
649	5.400	550.39233	344.01926	103.58778	984.43066	320.98737	411.80643							
